<svg width="29" height="37" viewBox="0 0 29 37" fill="none" xmlns="http://www.w3.org/2000/svg">
<path d="M25.8201 16.9C25.3601 16.3 24.8001 15.78 24.2801 15.26C22.9401 14.06 21.4201 13.2 20.1401 11.94C17.1601 9.02 16.5001 4.2 18.4001 0.5C16.5001 0.96 14.8401 2 13.4201 3.14C8.2401 7.3 6.2001 14.64 8.6401 20.94C8.7201 21.14 8.8001 21.34 8.8001 21.6C8.8001 22.04 8.5001 22.44 8.1001 22.6C7.6401 22.8 7.1601 22.68 6.7801 22.36C6.66591 22.2656 6.57086 22.1502 6.5001 22.02C4.2401 19.16 3.8801 15.06 5.4001 11.78C2.0601 14.5 0.240099 19.1 0.500099 23.44C0.620099 24.44 0.740099 25.44 1.0801 26.44C1.3601 27.64 1.9001 28.84 2.5001 29.9C4.6601 33.36 8.4001 35.84 12.4201 36.34C16.7001 36.88 21.2801 36.1 24.5601 33.14C28.2201 29.82 29.5001 24.5 27.6201 19.94L27.3601 19.42C26.9401 18.5 25.8201 16.9 25.8201 16.9ZM19.5001 29.5C18.9401 29.98 18.0201 30.5 17.3001 30.7C15.0601 31.5 12.8201 30.38 11.5001 29.06C13.8801 28.5 15.3001 26.74 15.7201 24.96C16.0601 23.36 15.4201 22.04 15.1601 20.5C14.9201 19.02 14.9601 17.76 15.5001 16.38C15.8801 17.14 16.2801 17.9 16.7601 18.5C18.3001 20.5 20.7201 21.38 21.2401 24.1C21.3201 24.38 21.3601 24.66 21.3601 24.96C21.4201 26.6 20.7001 28.4 19.5001 29.5Z" fill="#FF9B3E"/>
</svg>
