<svg width="37" height="36" viewBox="0 0 37 36" fill="none" xmlns="http://www.w3.org/2000/svg">
<path d="M30.3996 19.5615C30.1163 21.7214 29.2505 23.7635 27.8948 25.4688C26.5392 27.174 24.745 28.478 22.7045 29.241C20.6641 30.0041 18.4545 30.1972 16.3126 29.7999C14.1707 29.4025 12.1774 28.4296 10.5464 26.9855C8.91545 25.5413 7.70836 23.6805 7.0546 21.6025C6.40084 19.5245 6.32507 17.3077 6.83542 15.1899C7.34578 13.0721 8.423 11.1332 9.95155 9.58104C11.4801 8.02893 13.4023 6.92218 15.5121 6.37951C21.3606 4.87951 27.4146 7.89001 29.6496 13.5" stroke="white" stroke-width="3" stroke-linecap="round" stroke-linejoin="round"/>
<path d="M30.5 6V13.5H23" stroke="white" stroke-width="3" stroke-linecap="round" stroke-linejoin="round"/>
</svg>
